<svg xmlns="http://www.w3.org/2000/svg" xmlns:xlink="http://www.w3.org/1999/xlink" width="150px" height="44px" viewBox="0 0 148 44" version="1.1">
    <defs>
        <linearGradient id="linear0" gradientUnits="userSpaceOnUse" x1="-589.992" y1="1661.375" x2="-589.992" y2="1625.329" gradientTransform="matrix(1.096889,0,0,1.100209,755.704522,-1783.742672)">
            <stop offset="0" style="stop-color:rgb(10.196078%,10.196078%,10.196078%);stop-opacity:0.101961;"/>
            <stop offset="0.123" style="stop-color:rgb(12.941176%,12.941176%,12.941176%);stop-opacity:0.152941;"/>
            <stop offset="0.308" style="stop-color:rgb(20.784314%,20.784314%,20.784314%);stop-opacity:0.227451;"/>
            <stop offset="0.532" style="stop-color:rgb(34.117647%,34.117647%,34.117647%);stop-opacity:0.317647;"/>
            <stop offset="0.783" style="stop-color:rgb(52.156863%,52.156863%,52.156863%);stop-opacity:0.419608;"/>
            <stop offset="1" style="stop-color:rgb(70.196078%,70.196078%,70.196078%);stop-opacity:0.509804;"/>
        </linearGradient>
    </defs>
    <g id="surface1">
        <path style=" stroke:none;fill-rule:nonzero;fill:rgb(100%,100%,100%);fill-opacity:1;" d="M 147.019531 38.804688 C 147.019531 41.132812 145.136719 43.019531 142.8125 43.019531 L 5.1875 43.019531 C 2.863281 43.019531 0.976562 41.132812 0.976562 38.804688 L 0.976562 5.199219 C 0.976562 2.875 2.863281 0.980469 5.1875 0.980469 L 142.8125 0.980469 C 145.136719 0.980469 147.015625 2.875 147.015625 5.199219 Z M 147.019531 38.804688 "/>
        <path style=" stroke:none;fill-rule:nonzero;fill:rgb(65.098039%,65.098039%,65.098039%);fill-opacity:1;" d="M 142.8125 44 L 5.1875 44 C 2.328125 44 0 41.667969 0 38.804688 L 0 5.203125 C 0 2.335938 2.328125 0 5.1875 0 L 142.8125 0 C 145.667969 0 148 2.335938 148 5.203125 L 148 38.804688 C 148 41.667969 145.671875 44 142.8125 44 Z M 142.8125 44 "/>
        <path style=" stroke:none;fill-rule:nonzero;fill:rgb(0%,0%,0%);fill-opacity:1;" d="M 147.019531 38.804688 C 147.019531 41.132812 145.136719 43.019531 142.8125 43.019531 L 5.1875 43.019531 C 2.863281 43.019531 0.976562 41.132812 0.976562 38.804688 L 0.976562 5.199219 C 0.976562 2.875 2.863281 0.980469 5.1875 0.980469 L 142.8125 0.980469 C 145.136719 0.980469 147.015625 2.875 147.015625 5.199219 Z M 147.019531 38.804688 "/>
        <path style=" stroke:none;fill-rule:nonzero;fill:rgb(100%,100%,100%);fill-opacity:1;" d="M 33.046875 21.769531 C 33.015625 18.222656 35.941406 16.496094 36.074219 16.417969 C 34.417969 13.992188 31.847656 13.660156 30.945312 13.636719 C 28.789062 13.40625 26.695312 14.929688 25.597656 14.929688 C 24.476562 14.929688 22.785156 13.65625 20.960938 13.695312 C 18.613281 13.730469 16.417969 15.09375 15.210938 17.210938 C 12.726562 21.527344 14.578125 27.871094 16.960938 31.359375 C 18.152344 33.070312 19.542969 34.976562 21.367188 34.910156 C 23.148438 34.835938 23.816406 33.769531 25.964844 33.769531 C 28.097656 33.769531 28.722656 34.910156 30.582031 34.867188 C 32.492188 34.835938 33.699219 33.148438 34.847656 31.425781 C 36.222656 29.46875 36.777344 27.539062 36.796875 27.4375 C 36.753906 27.421875 33.085938 26.015625 33.046875 21.769531 Z M 29.535156 11.339844 C 30.496094 10.136719 31.152344 8.503906 30.96875 6.84375 C 29.582031 6.902344 27.847656 7.804688 26.847656 8.980469 C 25.964844 10.015625 25.171875 11.714844 25.378906 13.3125 C 26.9375 13.429688 28.535156 12.523438 29.535156 11.339844 Z M 29.535156 11.339844 "/>
        <path style=" stroke:none;fill-rule:nonzero;fill:url(#linear0);" d="M 142.8125 0 L 69.097656 0 L 97.96875 44 L 142.8125 44 C 145.667969 44 148 41.667969 148 38.800781 L 148 5.203125 C 148 2.335938 145.671875 0 142.8125 0 Z M 142.8125 0 "/>
        <path style=" stroke:none;fill-rule:nonzero;fill:rgb(100%,100%,100%);fill-opacity:1;" d="M 58.863281 34.664062 L 56.375 34.664062 L 55.007812 30.363281 L 50.265625 30.363281 L 48.964844 34.664062 L 46.539062 34.664062 L 51.242188 20.019531 L 54.144531 20.019531 Z M 54.597656 28.558594 L 53.363281 24.734375 C 53.234375 24.34375 52.988281 23.425781 52.628906 21.976562 L 52.582031 21.976562 C 52.4375 22.597656 52.207031 23.519531 51.890625 24.734375 L 50.675781 28.558594 Z M 70.929688 29.253906 C 70.929688 31.050781 70.441406 32.46875 69.46875 33.511719 C 68.597656 34.4375 67.515625 34.902344 66.226562 34.902344 C 64.832031 34.902344 63.828125 34.402344 63.21875 33.40625 L 63.21875 38.945312 L 60.878906 38.945312 L 60.878906 27.574219 C 60.878906 26.449219 60.851562 25.292969 60.792969 24.105469 L 62.851562 24.105469 L 62.980469 25.777344 L 63.023438 25.777344 C 63.804688 24.519531 64.988281 23.886719 66.578125 23.886719 C 67.820312 23.886719 68.855469 24.378906 69.683594 25.363281 C 70.511719 26.351562 70.929688 27.648438 70.929688 29.253906 Z M 68.546875 29.339844 C 68.546875 28.3125 68.316406 27.464844 67.851562 26.796875 C 67.347656 26.101562 66.667969 25.753906 65.816406 25.753906 C 65.238281 25.753906 64.714844 25.949219 64.246094 26.332031 C 63.777344 26.714844 63.46875 27.21875 63.328125 27.839844 C 63.253906 28.132812 63.21875 28.367188 63.21875 28.554688 L 63.21875 30.316406 C 63.21875 31.082031 63.453125 31.730469 63.921875 32.261719 C 64.390625 32.789062 65 33.054688 65.753906 33.054688 C 66.632812 33.054688 67.320312 32.714844 67.808594 32.035156 C 68.300781 31.351562 68.546875 30.457031 68.546875 29.339844 Z M 83.035156 29.253906 C 83.035156 31.050781 82.546875 32.46875 81.574219 33.511719 C 80.703125 34.4375 79.621094 34.902344 78.328125 34.902344 C 76.9375 34.902344 75.933594 34.402344 75.324219 33.40625 L 75.324219 38.945312 L 72.984375 38.945312 L 72.984375 27.574219 C 72.984375 26.449219 72.957031 25.292969 72.898438 24.105469 L 74.957031 24.105469 L 75.085938 25.777344 L 75.128906 25.777344 C 75.910156 24.519531 77.09375 23.886719 78.683594 23.886719 C 79.921875 23.886719 80.960938 24.378906 81.789062 25.363281 C 82.617188 26.351562 83.035156 27.648438 83.035156 29.253906 Z M 80.652344 29.339844 C 80.652344 28.3125 80.417969 27.464844 79.957031 26.796875 C 79.449219 26.101562 78.773438 25.753906 77.921875 25.753906 C 77.347656 25.753906 76.820312 25.949219 76.351562 26.332031 C 75.882812 26.714844 75.574219 27.21875 75.433594 27.839844 C 75.359375 28.132812 75.320312 28.367188 75.320312 28.554688 L 75.320312 30.316406 C 75.320312 31.082031 75.558594 31.730469 76.023438 32.261719 C 76.496094 32.789062 77.105469 33.054688 77.855469 33.054688 C 78.738281 33.054688 79.425781 32.714844 79.914062 32.035156 C 80.40625 31.351562 80.652344 30.457031 80.652344 29.339844 Z M 96.570312 30.554688 C 96.570312 31.800781 96.136719 32.816406 95.273438 33.597656 C 94.324219 34.453125 92.996094 34.878906 91.296875 34.878906 C 89.726562 34.878906 88.464844 34.574219 87.515625 33.96875 L 88.058594 32.011719 C 89.082031 32.621094 90.210938 32.925781 91.4375 32.925781 C 92.316406 32.925781 93.003906 32.726562 93.492188 32.328125 C 93.984375 31.929688 94.230469 31.398438 94.230469 30.734375 C 94.230469 30.136719 94.023438 29.640625 93.621094 29.234375 C 93.21875 28.828125 92.550781 28.449219 91.609375 28.105469 C 89.054688 27.148438 87.773438 25.75 87.773438 23.910156 C 87.773438 22.710938 88.226562 21.726562 89.128906 20.957031 C 90.03125 20.1875 91.226562 19.804688 92.710938 19.804688 C 94.039062 19.804688 95.148438 20.035156 96.027344 20.5 L 95.4375 22.414062 C 94.613281 21.964844 93.679688 21.738281 92.632812 21.738281 C 91.808594 21.738281 91.164062 21.941406 90.699219 22.347656 C 90.308594 22.710938 90.113281 23.152344 90.113281 23.675781 C 90.113281 24.25 90.335938 24.730469 90.785156 25.109375 C 91.171875 25.453125 91.882812 25.832031 92.90625 26.238281 C 94.164062 26.746094 95.085938 27.335938 95.679688 28.015625 C 96.273438 28.695312 96.570312 29.542969 96.570312 30.554688 Z M 104.320312 25.867188 L 101.742188 25.867188 L 101.742188 30.992188 C 101.742188 32.296875 102.199219 32.945312 103.109375 32.945312 C 103.527344 32.945312 103.875 32.910156 104.148438 32.835938 L 104.210938 34.617188 C 103.75 34.789062 103.144531 34.878906 102.394531 34.878906 C 101.46875 34.878906 100.75 34.59375 100.226562 34.027344 C 99.707031 33.464844 99.449219 32.515625 99.449219 31.183594 L 99.449219 25.859375 L 97.910156 25.859375 L 97.910156 24.101562 L 99.449219 24.101562 L 99.449219 22.167969 L 101.742188 21.472656 L 101.742188 24.101562 L 104.320312 24.101562 Z M 115.929688 29.296875 C 115.929688 30.917969 115.464844 32.253906 114.542969 33.292969 C 113.578125 34.367188 112.289062 34.902344 110.6875 34.902344 C 109.140625 34.902344 107.910156 34.386719 106.996094 33.359375 C 106.078125 32.332031 105.621094 31.035156 105.621094 29.472656 C 105.621094 27.835938 106.09375 26.496094 107.039062 25.457031 C 107.984375 24.414062 109.257812 23.890625 110.863281 23.890625 C 112.40625 23.890625 113.648438 24.40625 114.585938 25.433594 C 115.484375 26.429688 115.929688 27.71875 115.929688 29.296875 Z M 113.503906 29.351562 C 113.503906 28.382812 113.296875 27.554688 112.878906 26.859375 C 112.386719 26.023438 111.6875 25.601562 110.777344 25.601562 C 109.839844 25.601562 109.121094 26.023438 108.632812 26.859375 C 108.214844 27.554688 108.003906 28.398438 108.003906 29.394531 C 108.003906 30.363281 108.214844 31.195312 108.632812 31.886719 C 109.136719 32.726562 109.84375 33.144531 110.757812 33.144531 C 111.652344 33.144531 112.351562 32.714844 112.859375 31.867188 C 113.289062 31.15625 113.503906 30.320312 113.503906 29.351562 Z M 123.535156 26.167969 C 123.300781 26.125 123.054688 26.101562 122.796875 26.101562 C 121.972656 26.101562 121.339844 26.414062 120.890625 27.039062 C 120.503906 27.589844 120.308594 28.285156 120.308594 29.125 L 120.308594 34.664062 L 117.96875 34.664062 L 117.96875 27.429688 C 117.96875 26.214844 117.945312 25.105469 117.898438 24.105469 L 119.9375 24.105469 L 120.023438 26.125 L 120.085938 26.125 C 120.335938 25.433594 120.722656 24.871094 121.257812 24.453125 C 121.777344 24.074219 122.339844 23.886719 122.945312 23.886719 C 123.164062 23.886719 123.359375 23.902344 123.53125 23.929688 Z M 133.992188 28.882812 C 133.992188 29.304688 133.964844 29.660156 133.90625 29.949219 L 126.890625 29.949219 C 126.917969 30.992188 127.257812 31.789062 127.910156 32.339844 C 128.5 32.832031 129.265625 33.078125 130.203125 33.078125 C 131.242188 33.078125 132.191406 32.914062 133.042969 32.578125 L 133.410156 34.207031 C 132.414062 34.640625 131.238281 34.859375 129.878906 34.859375 C 128.25 34.859375 126.96875 34.375 126.035156 33.414062 C 125.105469 32.453125 124.636719 31.160156 124.636719 29.539062 C 124.636719 27.945312 125.070312 26.621094 125.9375 25.5625 C 126.847656 24.433594 128.074219 23.871094 129.621094 23.871094 C 131.136719 23.871094 132.285156 24.433594 133.066406 25.5625 C 133.683594 26.457031 133.992188 27.566406 133.992188 28.882812 Z M 131.761719 28.277344 C 131.777344 27.578125 131.625 26.980469 131.308594 26.472656 C 130.902344 25.820312 130.28125 25.492188 129.445312 25.492188 C 128.679688 25.492188 128.058594 25.8125 127.585938 26.449219 C 127.195312 26.957031 126.964844 27.566406 126.890625 28.273438 Z M 131.761719 28.277344 "/>
        <path style=" stroke:none;fill-rule:nonzero;fill:rgb(100%,100%,100%);fill-opacity:1;" d="M 53.46875 14.78125 L 52.246094 14.78125 L 51.574219 12.667969 L 49.242188 12.667969 L 48.605469 14.78125 L 47.410156 14.78125 L 49.722656 7.585938 L 51.148438 7.585938 Z M 51.371094 11.78125 L 50.765625 9.902344 C 50.703125 9.710938 50.585938 9.261719 50.402344 8.546875 L 50.382812 8.546875 C 50.308594 8.855469 50.203125 9.304688 50.042969 9.902344 L 49.445312 11.78125 Z M 59.246094 9.59375 L 57.289062 14.78125 L 56.167969 14.78125 L 54.273438 9.59375 L 55.507812 9.59375 L 56.394531 12.335938 C 56.542969 12.796875 56.667969 13.234375 56.765625 13.648438 L 56.796875 13.648438 C 56.882812 13.277344 57.007812 12.839844 57.167969 12.335938 L 58.042969 9.59375 Z M 63.417969 14.78125 L 63.332031 14.183594 L 63.300781 14.183594 C 62.949219 14.664062 62.4375 14.898438 61.789062 14.898438 C 60.863281 14.898438 60.203125 14.246094 60.203125 13.371094 C 60.203125 12.089844 61.308594 11.429688 63.222656 11.429688 L 63.222656 11.332031 C 63.222656 10.648438 62.863281 10.308594 62.148438 10.308594 C 61.636719 10.308594 61.191406 10.4375 60.796875 10.691406 L 60.566406 9.933594 C 61.042969 9.636719 61.640625 9.484375 62.34375 9.484375 C 63.695312 9.484375 64.375 10.199219 64.375 11.632812 L 64.375 13.542969 C 64.375 14.066406 64.398438 14.472656 64.449219 14.78125 Z M 63.257812 12.195312 C 61.980469 12.195312 61.339844 12.507812 61.339844 13.242188 C 61.339844 13.789062 61.671875 14.054688 62.128906 14.054688 C 62.714844 14.054688 63.257812 13.605469 63.257812 12.996094 Z M 66.9375 8.738281 C 66.554688 8.738281 66.253906 8.4375 66.253906 8.042969 C 66.253906 7.648438 66.5625 7.359375 66.957031 7.359375 C 67.351562 7.359375 67.671875 7.648438 67.660156 8.042969 C 67.660156 8.460938 67.363281 8.738281 66.9375 8.738281 Z M 67.535156 14.78125 L 66.382812 14.78125 L 66.382812 9.59375 L 67.535156 9.59375 Z M 70.726562 14.78125 L 69.574219 14.78125 L 69.574219 7.210938 L 70.726562 7.210938 Z M 75.609375 14.78125 L 75.523438 14.183594 L 75.492188 14.183594 C 75.140625 14.664062 74.632812 14.898438 73.980469 14.898438 C 73.054688 14.898438 72.394531 14.246094 72.394531 13.371094 C 72.394531 12.089844 73.503906 11.429688 75.417969 11.429688 L 75.417969 11.332031 C 75.417969 10.648438 75.058594 10.308594 74.34375 10.308594 C 73.832031 10.308594 73.386719 10.4375 72.992188 10.691406 L 72.757812 9.933594 C 73.238281 9.632812 73.832031 9.484375 74.535156 9.484375 C 75.886719 9.484375 76.570312 10.199219 76.570312 11.632812 L 76.570312 13.542969 C 76.570312 14.066406 76.59375 14.472656 76.644531 14.78125 Z M 75.449219 12.195312 C 74.171875 12.195312 73.535156 12.507812 73.535156 13.242188 C 73.535156 13.789062 73.863281 14.054688 74.320312 14.054688 C 74.90625 14.054688 75.449219 13.605469 75.449219 12.996094 Z M 81.226562 14.898438 C 80.492188 14.898438 79.949219 14.589844 79.601562 13.980469 L 79.578125 13.980469 L 79.511719 14.78125 L 78.53125 14.78125 C 78.5625 14.363281 78.574219 13.894531 78.574219 13.382812 L 78.574219 7.210938 L 79.726562 7.210938 L 79.726562 10.351562 L 79.746094 10.351562 C 80.089844 9.773438 80.640625 9.488281 81.398438 9.488281 C 82.644531 9.488281 83.515625 10.554688 83.515625 12.113281 C 83.515625 13.722656 82.546875 14.898438 81.226562 14.898438 Z M 80.992188 10.390625 C 80.332031 10.390625 79.726562 10.96875 79.726562 11.769531 L 79.726562 12.675781 C 79.726562 13.390625 80.269531 13.980469 80.972656 13.980469 C 81.835938 13.980469 82.347656 13.277344 82.347656 12.15625 C 82.34375 11.109375 81.8125 10.390625 80.992188 10.390625 Z M 86.363281 14.78125 L 85.214844 14.78125 L 85.214844 7.210938 L 86.363281 7.210938 Z M 92.621094 12.464844 L 89.171875 12.464844 C 89.195312 13.445312 89.839844 14 90.800781 14 C 91.3125 14 91.78125 13.914062 92.195312 13.753906 L 92.375 14.554688 C 91.882812 14.769531 91.308594 14.875 90.640625 14.875 C 89.019531 14.875 88.0625 13.851562 88.0625 12.261719 C 88.0625 10.671875 89.042969 9.476562 90.511719 9.476562 C 91.828125 9.476562 92.660156 10.457031 92.660156 11.941406 C 92.664062 12.144531 92.65625 12.324219 92.621094 12.464844 Z M 91.566406 11.640625 C 91.566406 10.839844 91.164062 10.277344 90.429688 10.277344 C 89.769531 10.277344 89.25 10.851562 89.171875 11.640625 Z M 99.589844 14.898438 C 98.078125 14.898438 97.097656 13.765625 97.097656 12.230469 C 97.097656 10.628906 98.097656 9.484375 99.675781 9.484375 C 101.164062 9.484375 102.167969 10.5625 102.167969 12.144531 C 102.167969 13.765625 101.132812 14.898438 99.589844 14.898438 Z M 99.632812 10.328125 C 98.804688 10.328125 98.269531 11.105469 98.269531 12.195312 C 98.269531 13.265625 98.8125 14.042969 99.621094 14.042969 C 100.429688 14.042969 100.972656 13.210938 100.972656 12.175781 C 100.972656 11.117188 100.441406 10.328125 99.632812 10.328125 Z M 108.347656 14.78125 L 107.199219 14.78125 L 107.199219 11.800781 C 107.199219 10.882812 106.847656 10.425781 106.15625 10.425781 C 105.476562 10.425781 105.003906 11.011719 105.003906 11.695312 L 105.003906 14.78125 L 103.855469 14.78125 L 103.855469 11.074219 C 103.855469 10.617188 103.84375 10.125 103.8125 9.589844 L 104.824219 9.589844 L 104.878906 10.390625 L 104.910156 10.390625 C 105.21875 9.835938 105.847656 9.484375 106.550781 9.484375 C 107.632812 9.484375 108.347656 10.316406 108.347656 11.671875 Z M 115.867188 10.457031 L 114.605469 10.457031 L 114.605469 12.976562 C 114.605469 13.617188 114.828125 13.9375 115.273438 13.9375 C 115.476562 13.9375 115.648438 13.917969 115.785156 13.882812 L 115.816406 14.761719 C 115.59375 14.847656 115.292969 14.890625 114.921875 14.890625 C 114.015625 14.890625 113.476562 14.386719 113.476562 13.074219 L 113.476562 10.457031 L 112.722656 10.457031 L 112.722656 9.59375 L 113.476562 9.59375 L 113.476562 8.640625 L 114.605469 8.300781 L 114.605469 9.589844 L 115.867188 9.589844 Z M 121.957031 14.78125 L 120.804688 14.78125 L 120.804688 11.824219 C 120.804688 10.894531 120.453125 10.425781 119.761719 10.425781 C 119.167969 10.425781 118.613281 10.832031 118.613281 11.652344 L 118.613281 14.78125 L 117.464844 14.78125 L 117.464844 7.210938 L 118.613281 7.210938 L 118.613281 10.328125 L 118.636719 10.328125 C 119 9.761719 119.519531 9.484375 120.191406 9.484375 C 121.285156 9.484375 121.957031 10.339844 121.957031 11.695312 Z M 127.832031 12.464844 L 124.378906 12.464844 C 124.402344 13.445312 125.050781 14 126.007812 14 C 126.519531 14 126.988281 13.914062 127.402344 13.753906 L 127.582031 14.554688 C 127.09375 14.769531 126.515625 14.875 125.847656 14.875 C 124.226562 14.875 123.269531 13.851562 123.269531 12.261719 C 123.269531 10.671875 124.25 9.476562 125.71875 9.476562 C 127.039062 9.476562 127.867188 10.457031 127.867188 11.941406 C 127.875 12.144531 127.863281 12.324219 127.832031 12.464844 Z M 126.777344 11.640625 C 126.777344 10.839844 126.371094 10.277344 125.636719 10.277344 C 124.976562 10.277344 124.457031 10.851562 124.378906 11.640625 Z M 126.777344 11.640625 "/>
    </g>
</svg>